<svg id="Layer_12" data-name="Layer 12" xmlns="http://www.w3.org/2000/svg" viewBox="0 0 330.87 509.85"><defs><style>.cls-1{fill:#c17427;}.cls-2{fill:#403a6e;}.cls-3{fill:#eab24e;}.cls-4{fill:#39578e;}.cls-5{fill:#aaa;}.cls-6{fill:none;stroke:#403a6e;stroke-miterlimit:10;stroke-width:0.5px;}</style></defs><title>Piefolio Favicon</title><path class="cls-1" d="M265.93,274a584,584,0,0,1,96.47,21c24.32,7.49,48.25,14.87,76.58,30.4A320.31,320.31,0,0,1,519.07,388q-4.08,39.75-8.18,79.51a35.43,35.43,0,0,1-4.68,9.94h0a50.13,50.13,0,0,1-11.59,6.16l-289.5,82.3c-8.6,1.58-15.86-3.55-16.81-9.54s4.87-10.9,5.13-11.11q-.75-32.9-1.48-65.79a8.59,8.59,0,0,1-2.6-2.95c-1.83-3.51-.49-7.59.08-9.23,2.09-6.06,28.23-79.62,64.33-180.5a15.92,15.92,0,0,1,3.39-7.4A16.08,16.08,0,0,1,265.93,274Z" transform="translate(-188.2 -56.32)"/><path class="cls-2" d="M192,479.82,496.14,406l-4.08,60.93L193.44,545.23Z" transform="translate(-188.2 -56.32)"/><path class="cls-3" d="M237.49,334.27a30.72,30.72,0,0,1,8.14-6.3c9.68-5.13,18.54-2.86,29.4-1.83,0,0,23.87,2.43,49-4.53a118.52,118.52,0,0,0,21.55-8.33L374.94,342a126.13,126.13,0,0,1-30.63,12.58,134.22,134.22,0,0,1-35,4.19c-22.85.15-23.91-4.57-37.41-1.88-9.51,1.9-11.42,5-31.49,11.91-7.56,2.62-13.84,4.47-17.93,5.62Z" transform="translate(-188.2 -56.32)"/><path class="cls-3" d="M214.34,397.18c22.51,2.46,38.14-1.63,48.32-5.87,11.36-4.74,17-10.25,30.21-11.83,11.71-1.39,17.32,1.52,29.88,2.75a119.12,119.12,0,0,0,42.86-4.5c14.95-4.41,15.47-8.1,27.5-9.68,11.58-1.52,16.61,1.18,29.16,2.07A110.38,110.38,0,0,0,461,365.71l28.33,25c-8.44,5.66-21.54,12.41-37.16,11.29-11.06-.78-12.93-4.77-23.69-5-15.31-.29-18.14,7.65-41.23,14.86-9.21,2.88-21.88,6.83-38,5.77s-17.93-6-30.37-4.69c-12.75,1.31-13.17,6.7-31.83,12.44a122.14,122.14,0,0,1-33.15,5c-15.92.46-16.74-2.29-26-.55-18.43,3.44-26.83,16.39-30.16,14.14C195.15,442.21,196.69,432.38,214.34,397.18Z" transform="translate(-188.2 -56.32)"/><path class="cls-3" d="M251.54,297.42,356.11,435.74A76.33,76.33,0,0,0,302,450.12l-68.5-99.78a103.27,103.27,0,0,1,18-52.92Z" transform="translate(-188.2 -56.32)"/><path class="cls-3" d="M391.85,339.6c22.52,29.34,34.71,43.15,57.23,72.49a71.21,71.21,0,0,0-53.22,14.61q-17.64-25.21-36.69-51-27.56-37.29-54.89-71.43c4.05.87,10.62,2.22,18.79,3.6,20.84,3.52,25.63,2.76,36.34,6.67,12.35,4.52,19.38,10.42,21.27,12.08A62.43,62.43,0,0,1,391.85,339.6Z" transform="translate(-188.2 -56.32)"/><path class="cls-3" d="M244.56,309.19c.74.61,2.83-1.71,6.73-2.21,4.36-.56,7.86,1.55,9.16,2.22,8.39,4.36,22.38-.39,36.25-2,21-2.44,35.95,3,36.05,2.36s-14.78-3.95-80.45-16C244.85,305.18,243.79,308.56,244.56,309.19Z" transform="translate(-188.2 -56.32)"/><path class="cls-3" d="M391.85,339.6a118.38,118.38,0,0,0-47.54,15q-20-25.15-40-50.32c4.23.6,10.54,1.52,18.2,2.71,26.56,4.11,31.82,5.61,36.93,7.56,5.72,2.19,13.36,5.18,21.27,12.08A60.32,60.32,0,0,1,391.85,339.6Z" transform="translate(-188.2 -56.32)"/><path class="cls-1" d="M343,358.18c9.41-3,18.53-6.94,28-9.85,9.87-3,20-6.59,30.4-4.35,1.88.4,2.69-2.49.8-2.89-9.87-2.13-19,.5-28.45,3.3-10.68,3.16-20.94,7.48-31.53,10.9-1.83.59-1,3.49.8,2.89Z" transform="translate(-188.2 -56.32)"/><path class="cls-3" d="M394.9,343.9q3.66-.09,7.51,0a175.71,175.71,0,0,1,23.53,2c11.72,4.08,16.68,8.29,16.55,8.76s-3.23,0-15.42-1.22c-6.71-.66-9.07-.84-12.25-.29a28.69,28.69,0,0,0-9.62,3.57C402.64,353.41,397.46,347.22,394.9,343.9Z" transform="translate(-188.2 -56.32)"/><path class="cls-1" d="M250.46,380.3q18.32,27.76,37.1,55.22c1.08,1.58,3.68.08,2.59-1.52q-18.79-27.45-37.09-55.22c-1.06-1.6-3.66-.1-2.6,1.52Z" transform="translate(-188.2 -56.32)"/><path class="cls-1" d="M313,376q19.83,26.7,40.11,53.06" transform="translate(-188.2 -56.32)"/><path class="cls-1" d="M311.7,376.7q19.82,26.71,40.11,53.07c1.16,1.51,3.77,0,2.59-1.51q-20.28-26.37-40.11-53.07c-1.14-1.53-3.74,0-2.59,1.51Z" transform="translate(-188.2 -56.32)"/><circle class="cls-4" cx="146.91" cy="420.61" r="24.73"/><path class="cls-4" d="M208.81,485.21a24.73,24.73,0,1,0,41.57-18.06l-40.1,9.73A24.73,24.73,0,0,0,208.81,485.21Z" transform="translate(-188.2 -56.32)"/><path class="cls-4" d="M315,511.82a24.71,24.71,0,1,0-46.67,12.28Z" transform="translate(-188.2 -56.32)"/><path class="cls-4" d="M420.62,484.05a24.73,24.73,0,1,0-43.18,11.35Z" transform="translate(-188.2 -56.32)"/><path class="cls-4" d="M492.1,439a25.61,25.61,0,0,0-2.78-.17,24.67,24.67,0,0,0-23.14,33.38l24.45-6.43Z" transform="translate(-188.2 -56.32)"/><path class="cls-4" d="M452.27,418.62l-36,8.61a24.73,24.73,0,1,0,36-8.61Z" transform="translate(-188.2 -56.32)"/><path class="cls-5" d="M368.42,56.32a193.41,193.41,0,0,0-6.4,48.21c-.16,33.41,8.67,48.3,7.7,80.42a172.93,172.93,0,0,1-8.21,47.34c12.59-17.18,17.22-32.37,19.05-43.36,4.46-26.79-5.31-42.79-10.14-82.23A305.31,305.31,0,0,1,368.42,56.32Z" transform="translate(-188.2 -56.32)"/><path class="cls-5" d="M410.14,83.37a194.07,194.07,0,0,0-6.41,48.22c-.15,33.41,8.68,48.3,7.71,80.41a172.86,172.86,0,0,1-8.21,47.34c12.59-17.17,17.21-32.36,19-43.35,4.46-26.8-5.32-42.8-10.15-82.23A306.31,306.31,0,0,1,410.14,83.37Z" transform="translate(-188.2 -56.32)"/><path class="cls-5" d="M330.17,104.55a157,157,0,0,0-5.2,39.16c-.13,27.14,7,39.23,6.25,65.32a140.25,140.25,0,0,1-6.67,38.45c10.23-13.95,14-26.29,15.48-35.21,3.62-21.77-4.32-34.77-8.24-66.8A248.16,248.16,0,0,1,330.17,104.55Z" transform="translate(-188.2 -56.32)"/><path class="cls-4" d="M233.15,533.18a24.72,24.72,0,0,0-38.35-16.11l.88,25.75Z" transform="translate(-188.2 -56.32)"/><path class="cls-6" d="M196.73,540.63c.13-1.8.25-3.61.37-5.41l.72-.16.13-.23.36-.31.52-.47,0-.27.11-.35.07,0-.09-.19.22-.45h.09l.16-.13.19-.74,1.65-1.93.31.16v.53h.43a1.4,1.4,0,0,0,.59-.07.84.84,0,0,0,.22-.17.46.46,0,0,1,.23,0,.51.51,0,0,1,.28.2l.5.59-.32,3.72a.61.61,0,0,0,.2.18.9.9,0,0,0,.32.1.53.53,0,0,1,.14.35c0,.09,0,.1-.07.25a.83.83,0,0,0,0,.4.87.87,0,0,0,.13.29.55.55,0,0,0,.1.11l0-.24.27.1.07.69.25.11.08.18-.67.5-2.84,1.34-.43-.22-.52.31-3.56,2L197,541Z" transform="translate(-188.2 -56.32)"/></svg>